<svg width="15" height="12" viewBox="0 0 15 12" fill="none" xmlns="http://www.w3.org/2000/svg">
<path id="Vector" d="M14.4233 0.166153C14.2839 0.0924078 14.128 0.041771 13.9646 0.0171359C13.8012 -0.00749924 13.6335 -0.00565004 13.471 0.0225778C13.3084 0.0508057 13.1543 0.104859 13.0175 0.18165C12.8806 0.258442 12.7636 0.356466 12.6732 0.470123L5.58246 9.3798L2.12442 6.77337C2.00241 6.68141 1.85938 6.60994 1.7035 6.56304C1.54761 6.51614 1.38192 6.49473 1.21588 6.50003C0.880549 6.51073 0.564171 6.62959 0.336343 6.83045C0.108515 7.03131 -0.0121004 7.29772 0.00103116 7.57107C0.0141627 7.84443 0.159965 8.10234 0.406364 8.28806L4.94678 11.7101C4.94678 11.7101 5.07712 11.8016 5.13744 11.8336C5.27684 11.9074 5.43272 11.958 5.59617 11.9827C5.75961 12.0074 5.92741 12.0055 6.08998 11.9773C6.25256 11.9491 6.40671 11.895 6.54363 11.8182C6.68056 11.7414 6.79757 11.6433 6.88797 11.5296L14.7962 1.59282C14.8866 1.47919 14.9487 1.35215 14.979 1.21895C15.0092 1.08575 15.0069 0.948998 14.9723 0.816512C14.9377 0.684026 14.8714 0.5584 14.7772 0.446809C14.683 0.335219 14.5627 0.239851 14.4233 0.166153Z" fill="#1C92FF"/>
</svg>
