<svg width="180" height="65" viewBox="0 0 180 65" fill="none" xmlns="http://www.w3.org/2000/svg">
<path d="M84.2562 41.2308V24.5713C84.2562 24.4074 84.3869 24.2751 84.5489 24.2751H87.2335C87.3468 24.2751 87.4495 24.3421 87.4983 24.4461L92.5906 35.4061C92.6968 35.6335 93.0156 35.6335 93.1202 35.4061L98.2124 24.4461C98.2612 24.3421 98.364 24.2751 98.4772 24.2751H101.186C101.348 24.2751 101.479 24.4074 101.479 24.5713V41.2308C101.479 41.3947 101.348 41.5269 101.186 41.5269H99.2507C99.0887 41.5269 98.958 41.3947 98.958 41.2308V29.7067C98.958 29.3893 98.533 29.2941 98.4006 29.5815L94.0714 38.9319C94.0226 39.0359 93.9198 39.1029 93.8066 39.1029H91.9303C91.8171 39.1029 91.7143 39.0359 91.6655 38.9319L87.3119 29.5744C87.1778 29.2888 86.7544 29.384 86.7544 29.7014V41.2308C86.7544 41.3947 86.6238 41.5269 86.4618 41.5269H84.5524C84.3904 41.5269 84.2597 41.3947 84.2597 41.2308H84.2562Z" fill="#3E3F53"/>
<path d="M105.357 37.6769V32.3018C105.357 30.1899 107.048 28.4763 109.137 28.4763H112.35C114.439 28.4763 116.13 30.1899 116.13 32.3018V34.9162C116.13 35.4609 115.695 35.9017 115.156 35.9017H108.426C108.055 35.9017 107.754 36.2066 107.754 36.5821V37.9255C107.754 38.7399 108.407 39.401 109.212 39.401H115.169C115.426 39.401 115.635 39.6126 115.635 39.8735V40.4411C115.635 40.5892 115.567 40.7285 115.451 40.8184L114.649 41.4319C114.569 41.4936 114.47 41.5271 114.369 41.5271H109.139C106.618 41.5271 105.359 40.2437 105.359 37.6769H105.357ZM108.233 34.0013H113.304C113.541 34.0013 113.733 33.8073 113.733 33.5676V32.0515C113.733 31.2511 113.092 30.6006 112.299 30.6006H109.21C108.238 30.6006 107.752 31.0837 107.752 32.0515V33.5165C107.752 33.7844 107.967 34.0013 108.231 34.0013H108.233Z" fill="#3E3F53"/>
<path d="M69.5788 37.6769V32.3018C69.5788 30.1899 71.2704 28.4763 73.3592 28.4763H76.5717C78.6605 28.4763 80.3521 30.1899 80.3521 32.3018V34.9162C80.3521 35.4609 79.9166 35.9017 79.3783 35.9017H72.6484C72.2773 35.9017 71.976 36.2066 71.976 36.5821V37.9255C71.976 38.7399 72.6293 39.401 73.4341 39.401H79.3904C79.6483 39.401 79.8573 39.6126 79.8573 39.8735V40.4411C79.8573 40.5892 79.7894 40.7285 79.6727 40.8184L78.8713 41.4319C78.7912 41.4936 78.6919 41.5271 78.5908 41.5271H73.361C70.8401 41.5271 69.5805 40.2437 69.5805 37.6769H69.5788ZM72.455 34.0013H77.5264C77.7633 34.0013 77.9549 33.8073 77.9549 33.5676V32.0515C77.9549 31.2511 77.3138 30.6006 76.5212 30.6006H73.4324C72.4603 30.6006 71.9742 31.0837 71.9742 32.0515V33.5165C71.9742 33.7844 72.1885 34.0013 72.4533 34.0013H72.455Z" fill="#4377FF"/>
<path d="M119.688 37.6767V24.6789C119.688 24.455 119.867 24.2751 120.087 24.2751H121.684C121.905 24.2751 122.083 24.4567 122.083 24.6789V28.0707C122.083 28.2946 122.262 28.4744 122.482 28.4744H126.254C126.475 28.4744 126.653 28.656 126.653 28.8781V30.195C126.653 30.4189 126.473 30.5987 126.254 30.5987H122.482C122.261 30.5987 122.083 30.7803 122.083 31.0024V37.8495C122.083 38.7045 122.768 39.3991 123.614 39.3991H126.503C126.724 39.3991 126.902 39.5807 126.902 39.8028V40.4692C126.902 40.5979 126.841 40.7177 126.74 40.7935L125.87 41.4441C125.802 41.4952 125.719 41.5234 125.633 41.5234H123.468C120.947 41.5234 119.688 40.24 119.688 37.6732V37.6767Z" fill="#3E3F53"/>
<path d="M129.619 41.5269V30.7626C129.619 30.1597 129.858 29.5585 130.332 29.1919C130.95 28.7141 131.808 28.4744 132.905 28.4744H135.278C135.389 28.4744 135.499 28.5114 135.588 28.5784L136.374 29.1654C136.508 29.2659 136.586 29.4228 136.586 29.5903V30.0698C136.586 30.3624 136.353 30.5987 136.064 30.5987H133.374C133.374 30.5987 133.361 30.5987 133.355 30.5987C132.604 30.6022 132.015 31.2598 132.015 32.0196V41.5251H129.618L129.619 41.5269Z" fill="#3E3F53"/>
<path d="M139.058 25.7173V23.8821C139.058 23.6564 139.239 23.4749 139.461 23.4749H141.224C141.447 23.4749 141.626 23.6582 141.626 23.8821V25.7173C141.626 25.9429 141.445 26.1245 141.224 26.1245H139.461C139.238 26.1245 139.058 25.9412 139.058 25.7173ZM139.158 41.1198V28.8834C139.158 28.6578 139.339 28.4762 139.56 28.4762H141.151C141.374 28.4762 141.553 28.6596 141.553 28.8834V41.1198C141.553 41.3454 141.372 41.527 141.151 41.527H139.56C139.337 41.527 139.158 41.3436 139.158 41.1198Z" fill="#3E3F53"/>
<path d="M145.21 37.6769V32.3018C145.21 30.1899 146.901 28.4763 148.99 28.4763H153.558C153.689 28.4763 153.818 28.5186 153.924 28.598L154.649 29.1392C154.805 29.2573 154.898 29.4424 154.898 29.6398V29.9801C154.898 30.3238 154.622 30.6024 154.283 30.6024H149.065C148.093 30.6024 147.607 31.0854 147.607 32.0533V37.929C147.607 38.7435 148.26 39.4046 149.065 39.4046H154.281C154.621 39.4046 154.896 39.6831 154.896 40.0269V40.3653C154.896 40.5628 154.804 40.7479 154.647 40.866L153.922 41.409C153.816 41.4883 153.689 41.5306 153.556 41.5306H148.99C146.469 41.5306 145.21 40.2472 145.21 37.6804V37.6769Z" fill="#3E3F53"/>
<path d="M157.466 40.4392V39.8715C157.466 39.6124 157.673 39.4008 157.931 39.4008H163.175C164.147 39.4008 164.633 38.9002 164.633 37.9006C164.633 36.901 164.237 36.284 163.446 36.15L160.605 35.6758C158.513 35.3091 157.466 34.1421 157.466 32.1747C157.466 29.7084 158.734 28.4744 161.27 28.4744H165.145C165.244 28.4744 165.342 28.5061 165.42 28.566L166.244 29.1831C166.363 29.2712 166.432 29.4122 166.432 29.5603V30.128C166.432 30.3871 166.225 30.5987 165.967 30.5987H161.317C160.514 30.5987 159.844 31.2509 159.835 32.0636C159.824 33.0191 160.236 33.5727 161.07 33.7243L163.936 34.2003C165.995 34.5493 167.025 35.7499 167.025 37.8001C167.025 40.2841 165.748 41.5251 163.195 41.5251H158.753C158.654 41.5251 158.556 41.4934 158.478 41.4335L157.652 40.8164C157.534 40.7283 157.464 40.5873 157.464 40.4392H157.466Z" fill="#171719"/>
<path d="M23.3462 54.6553L18.1129 55.9827C16.4422 56.4058 15.0886 55.3798 15.0886 53.6892V42.8191C15.0886 41.0844 16.4788 39.3251 18.193 38.8896L26.3723 36.8147V50.828C26.3723 52.5186 25.0187 54.2322 23.348 54.657L23.3462 54.6553Z" fill="#34D5FF"/>
<path d="M50.5251 54.6553L45.2918 55.9828C43.6211 56.4059 42.2675 55.3799 42.2675 53.6893V32.5767L50.4746 30.4948C52.1732 30.0646 53.5512 31.1082 53.5512 32.8271V50.8263C53.5512 52.5169 52.1976 54.2305 50.5269 54.6553H50.5251Z" fill="#013FB0"/>
<path d="M37.0341 46.4579L31.8008 47.7853C30.1301 48.2084 28.7764 47.1824 28.7764 45.4918V36.203L40.0602 33.3401V42.6288C40.0602 44.3194 38.7065 46.033 37.0359 46.4579H37.0341Z" fill="#4377FF"/>
<path d="M32.0133 35.3604L20.7296 38.2233V24.2735C20.7296 22.5828 22.0832 20.8693 23.7539 20.4444L28.9872 19.117C30.6579 18.6939 32.0116 19.7199 32.0116 21.4105V35.3604H32.0133Z" fill="#03B5FF"/>
<path d="M48.9729 31.0589L37.6891 33.9218V14.1756C37.6891 12.4849 39.0428 10.7714 40.7135 10.3465L45.9468 9.01908C47.6175 8.59598 48.9712 9.62199 48.9712 11.3126V31.0589H48.9729Z" fill="#1A57FF"/>
</svg>
