<svg width="20" height="20" viewBox="0 0 20 20" fill="none" xmlns="http://www.w3.org/2000/svg">
<g id="Icon/Fill/CaretLeft">
<path id="Vector" d="M12.7422 3.17188C12.6267 3.12685 12.5009 3.11542 12.3792 3.13893C12.2576 3.16243 12.145 3.2199 12.0547 3.30469L5.80466 9.55469C5.6873 9.67318 5.62146 9.83322 5.62146 10C5.62146 10.1668 5.6873 10.3268 5.80466 10.4453L12.0547 16.6953C12.1746 16.81 12.334 16.8743 12.5 16.875C12.5829 16.8746 12.6651 16.8587 12.7422 16.8281C12.8559 16.7803 12.953 16.6999 13.0211 16.597C13.0892 16.4941 13.1254 16.3734 13.125 16.25V3.75C13.1254 3.62661 13.0892 3.50587 13.0211 3.40298C12.953 3.3001 12.8559 3.21969 12.7422 3.17188Z" fill="#CBCBCB"/>
</g>
</svg>
