<svg>
    <symbol>
        <svg width="22" height="22" viewBox="0 0 22 22" stroke="none" xmlns="http://www.w3.org/2000/svg" id="sellers">
            <g clip-path="url(#clip0_891_557)">
                <path fill-rule="evenodd" clip-rule="evenodd" d="M17.0722 1.53471C16.0311 1.53471 15.1966 2.36776 15.1966 3.40705C15.1966 4.40759 15.9674 5.21398 16.9433 5.27716C17.0251 5.2699 17.109 5.2699 17.1908 5.27716C18.165 5.21403 18.9392 4.4087 18.9478 3.40431C18.9463 2.37456 18.1104 1.53471 17.0722 1.53471ZM13.6592 3.40705C13.6592 1.52017 15.182 0 17.0722 0C18.9643 0 20.4852 1.53234 20.4852 3.40705V3.41253C20.472 5.25308 19.0206 6.74746 17.1923 6.81359C17.1504 6.81511 17.1085 6.8132 17.0671 6.80791C17.0256 6.8132 16.9837 6.81511 16.9419 6.81359C15.1144 6.7475 13.6592 5.25282 13.6592 3.40705Z"/>
                <path fill-rule="evenodd" clip-rule="evenodd" d="M15.9457 7.77717C17.504 7.50467 19.2807 7.76446 20.5724 8.62005L20.5737 8.62097C21.4566 9.20851 21.9999 10.0599 21.9999 11.009C21.9999 11.9581 21.4566 12.8095 20.5737 13.397C19.2917 14.2536 17.5362 14.5125 15.9819 14.252C15.5632 14.1818 15.2808 13.7861 15.3511 13.3682C15.4213 12.9502 15.8177 12.6683 16.2364 12.7385C17.4899 12.9485 18.8289 12.7165 19.7196 12.121L19.721 12.1201C20.2832 11.7459 20.4625 11.3286 20.4625 11.009C20.4625 10.6896 20.2834 10.2725 19.7217 9.8984C18.82 9.30145 17.4608 9.07029 16.211 9.28885C15.7929 9.36198 15.3945 9.08286 15.3212 8.66542C15.248 8.24798 15.5276 7.85029 15.9457 7.77717Z"/>
                <path fill-rule="evenodd" clip-rule="evenodd" d="M1.51465 3.40705C1.51465 1.53233 3.03553 0 4.92765 0C6.81783 0 8.34064 1.52017 8.34064 3.40705C8.34064 5.25282 6.88541 6.7475 5.05797 6.81359C5.01614 6.81511 4.97426 6.8132 4.93277 6.80791C4.89128 6.8132 4.84941 6.81511 4.80757 6.81359C2.97917 6.74746 1.52784 5.25308 1.51467 3.41253L1.51465 3.40705ZM3.05204 3.40432C3.06062 4.4087 3.83485 5.21403 4.80901 5.27716C4.89086 5.2699 4.97469 5.2699 5.05654 5.27716C6.03238 5.21398 6.80326 4.40759 6.80326 3.40705C6.80326 2.36776 5.96875 1.53471 4.92765 1.53471C3.8894 1.53471 3.05351 2.37457 3.05204 3.40432Z"/>
                <path fill-rule="evenodd" clip-rule="evenodd" d="M2.27825 9.89838C3.17994 9.30145 4.53909 9.0703 5.78885 9.28885C6.20702 9.36198 6.6054 9.08286 6.67866 8.66542C6.75192 8.24798 6.47231 7.85029 6.05414 7.77717C4.49593 7.50467 2.71919 7.76446 1.42754 8.62005L1.42616 8.62097C0.543302 9.20851 0 10.0599 0 11.009C0 11.9579 0.543016 12.8091 1.42546 13.3966C2.70761 14.2535 4.46345 14.5125 6.01802 14.252C6.4367 14.1818 6.71912 13.7861 6.64883 13.3682C6.57855 12.9502 6.18216 12.6683 5.76348 12.7385C4.51003 12.9485 3.17097 12.7165 2.28033 12.121L2.27894 12.1201C1.71666 11.7459 1.53739 11.3286 1.53739 11.009C1.53739 10.6896 1.71651 10.2725 2.27825 9.89838Z"/>
                <path fill-rule="evenodd" clip-rule="evenodd" d="M10.9228 9.17753C9.88166 9.17753 9.04715 10.0106 9.04715 11.0499C9.04715 12.0504 9.81803 12.8568 10.7939 12.92C10.8769 12.9126 10.9619 12.9127 11.0449 12.9203C12.0111 12.865 12.7898 12.0569 12.7984 11.0471C12.7969 10.0174 11.961 9.17753 10.9228 9.17753ZM7.50977 11.0499C7.50977 9.16299 9.03258 7.64282 10.9228 7.64282C12.8149 7.64282 14.3358 9.17516 14.3358 11.0499V11.0554C14.3227 12.891 12.875 14.4034 11.0373 14.4566C10.9973 14.4578 10.9573 14.4558 10.9176 14.4507C10.8761 14.456 10.8343 14.4579 10.7924 14.4564C8.965 14.3903 7.50977 12.8956 7.50977 11.0499Z"/>
                <path fill-rule="evenodd" clip-rule="evenodd" d="M11.0191 15.3318C12.2167 15.3318 13.4557 15.6295 14.4242 16.2741C15.307 16.8616 15.8503 17.713 15.8503 18.6621C15.8503 19.6111 15.3072 20.4624 14.4245 21.0499C13.4519 21.699 12.2134 22.0001 11.0153 22.0001C9.81712 22.0001 8.57861 21.699 7.606 21.0499C6.72334 20.4624 6.18018 19.6111 6.18018 18.6621C6.18018 17.713 6.72348 16.8616 7.60633 16.2741L7.60818 16.2728C8.58081 15.6296 9.82125 15.3318 11.0191 15.3318ZM8.45821 17.5516C7.89664 17.9257 7.71756 18.3427 7.71756 18.6621C7.71756 18.9817 7.89683 19.399 8.45912 19.7732L8.46004 19.7738C9.12722 20.2192 10.051 20.4654 11.0153 20.4654C11.9795 20.4654 12.9033 20.2192 13.5705 19.7738L13.5714 19.7732C14.1337 19.399 14.3129 18.9817 14.3129 18.6621C14.3129 18.3425 14.1337 17.9252 13.5714 17.551C12.9103 17.111 11.9866 16.8665 11.0191 16.8665C10.0522 16.8665 9.12539 17.1107 8.45821 17.5516Z"/>
            </g>
            <defs>
                <clipPath id="clip0_891_557">
                    <rect width="22" height="22" fill="white"/>
                </clipPath>
            </defs>
        </svg>
    </symbol>

    <symbol>
        <svg width="22" height="23" viewBox="0 0 22 23" fill="none" xmlns="http://www.w3.org/2000/svg" id="brands">
            <path d="M8.48584 4.13889C8.48584 4.70616 8.71119 5.25019 9.11231 5.65131C9.51343 6.05243 10.0575 6.27778 10.6247 6.27778C11.192 6.27778 11.736 6.05243 12.1372 5.65131C12.5383 5.25019 12.7636 4.70616 12.7636 4.13889C12.7636 3.57162 12.5383 3.02759 12.1372 2.62647C11.736 2.22535 11.192 2 10.6247 2C10.0575 2 9.51343 2.22535 9.11231 2.62647C8.71119 3.02759 8.48584 3.57162 8.48584 4.13889Z" stroke-width="1.5" stroke-linecap="round" stroke-linejoin="round"/>
            <path d="M16.7453 6.71619C15.6496 5.59293 14.2658 4.79299 12.7456 4.40405M8.49884 4.40405C6.95344 4.80039 5.5498 5.62131 4.44671 6.77394M2.43509 10.2122C2.19196 11.0168 2.06872 11.8528 2.06934 12.6933C2.06934 13.4826 2.17628 14.2472 2.37627 14.9734M4.47238 18.6394C5.57008 19.7768 6.96164 20.5875 8.49242 20.9815M12.7702 20.9815C14.2959 20.5865 15.6827 19.7775 16.7774 18.6437M18.8757 14.9755C19.08 14.2331 19.1832 13.4665 19.1826 12.6965C19.1826 11.8795 19.0682 11.0892 18.8543 10.3405" stroke-width="1.5" stroke-linecap="round" stroke-linejoin="round"/>
            <path d="M1 16.9721C1 17.5394 1.22535 18.0834 1.62647 18.4846C2.02759 18.8857 2.57162 19.111 3.13889 19.111C3.70616 19.111 4.25019 18.8857 4.65131 18.4846C5.05243 18.0834 5.27778 17.5394 5.27778 16.9721C5.27778 16.4049 5.05243 15.8608 4.65131 15.4597C4.25019 15.0586 3.70616 14.8333 3.13889 14.8333C2.57162 14.8333 2.02759 15.0586 1.62647 15.4597C1.22535 15.8608 1 16.4049 1 16.9721ZM15.9722 16.9721C15.9722 17.5394 16.1976 18.0834 16.5987 18.4846C16.9998 18.8857 17.5438 19.111 18.1111 19.111C18.6784 19.111 19.2224 18.8857 19.6235 18.4846C20.0247 18.0834 20.25 17.5394 20.25 16.9721C20.25 16.4049 20.0247 15.8608 19.6235 15.4597C19.2224 15.0586 18.6784 14.8333 18.1111 14.8333C17.5438 14.8333 16.9998 15.0586 16.5987 15.4597C16.1976 15.8608 15.9722 16.4049 15.9722 16.9721Z" stroke-width="1.5" stroke-linecap="round" stroke-linejoin="round"/>
        </svg>
    </symbol>
</svg>