<svg>
    <symbol>
        <svg xmlns="http://www.w3.org/2000/svg" width="20" height="20" viewBox="0 0 20 20" stroke="none" id="category">
            <path d="M12.0344 1.03462C12.6671 0.401878 13.5604 0.145752 14.583 0.145752H16.4163C17.439 0.145752 18.3322 0.401878 18.965 1.03462C19.5977 1.66735 19.8538 2.56061 19.8538 3.58325V5.41659C19.8538 6.43923 19.5977 7.33248 18.965 7.96522C18.3322 8.59796 17.439 8.85408 16.4163 8.85408H14.583C13.5604 8.85408 12.6671 8.59796 12.0344 7.96522C11.4016 7.33248 11.1455 6.43923 11.1455 5.41659V3.58325C11.1455 2.56061 11.4016 1.66735 12.0344 1.03462ZM13.0066 2.00689C12.7227 2.29082 12.5205 2.77256 12.5205 3.58325V5.41659C12.5205 6.22728 12.7227 6.70902 13.0066 6.99295C13.2906 7.27688 13.7723 7.47908 14.583 7.47908H16.4163C17.227 7.47908 17.7088 7.27688 17.9927 6.99295C18.2766 6.70902 18.4788 6.22728 18.4788 5.41659V3.58325C18.4788 2.77256 18.2766 2.29082 17.9927 2.00689C17.7088 1.72296 17.227 1.52075 16.4163 1.52075H14.583C13.7723 1.52075 13.2906 1.72296 13.0066 2.00689Z" stroke="#787F89" stroke-width="0.2" stroke-miterlimit="10" stroke-linecap="round" stroke-linejoin="round"/>
            <path d="M1.03437 12.0346C1.66711 11.4019 2.56037 11.1458 3.58301 11.1458H5.41634C6.43898 11.1458 7.33224 11.4019 7.96498 12.0346C8.59772 12.6674 8.85384 13.5606 8.85384 14.5833V16.4166C8.85384 17.4392 8.59772 18.3325 7.96498 18.9652C7.33224 19.598 6.43898 19.8541 5.41634 19.8541H3.58301C2.56037 19.8541 1.66711 19.598 1.03437 18.9652C0.401634 18.3325 0.145508 17.4392 0.145508 16.4166V14.5833C0.145508 13.5606 0.401634 12.6674 1.03437 12.0346ZM2.00664 13.0069C1.72272 13.2908 1.52051 13.7726 1.52051 14.5833V16.4166C1.52051 17.2273 1.72272 17.709 2.00664 17.9929C2.29057 18.2769 2.77232 18.4791 3.58301 18.4791H5.41634C6.22703 18.4791 6.70878 18.2769 6.9927 17.9929C7.27663 17.709 7.47884 17.2273 7.47884 16.4166V14.5833C7.47884 13.7726 7.27663 13.2908 6.9927 13.0069C6.70878 12.723 6.22703 12.5208 5.41634 12.5208H3.58301C2.77232 12.5208 2.29057 12.723 2.00664 13.0069Z" stroke="#787F89" stroke-width="0.2" stroke-miterlimit="10" stroke-linecap="round" stroke-linejoin="round"/>
            <path d="M4.49967 1.52075C2.85433 1.52075 1.52051 2.85457 1.52051 4.49992C1.52051 6.14527 2.85433 7.47908 4.49967 7.47908C6.14502 7.47908 7.47884 6.14527 7.47884 4.49992C7.47884 2.85457 6.14502 1.52075 4.49967 1.52075ZM0.145508 4.49992C0.145508 2.09518 2.09493 0.145752 4.49967 0.145752C6.90441 0.145752 8.85384 2.09518 8.85384 4.49992C8.85384 6.90466 6.90441 8.85408 4.49967 8.85408C2.09493 8.85408 0.145508 6.90466 0.145508 4.49992Z" stroke="#787F89" stroke-width="0.2" stroke-miterlimit="10" stroke-linecap="round" stroke-linejoin="round"/>
            <path d="M15.4997 12.5208C13.8543 12.5208 12.5205 13.8546 12.5205 15.4999C12.5205 17.1453 13.8543 18.4791 15.4997 18.4791C17.145 18.4791 18.4788 17.1453 18.4788 15.4999C18.4788 13.8546 17.145 12.5208 15.4997 12.5208ZM11.1455 15.4999C11.1455 13.0952 13.0949 11.1458 15.4997 11.1458C17.9044 11.1458 19.8538 13.0952 19.8538 15.4999C19.8538 17.9047 17.9044 19.8541 15.4997 19.8541C13.0949 19.8541 11.1455 17.9047 11.1455 15.4999Z" stroke="#787F89" stroke-width="0.2" stroke-miterlimit="10" stroke-linecap="round" stroke-linejoin="round"/>
        </svg>
    </symbol>
    
    <symbol>
        <svg xmlns="http://www.w3.org/2000/svg" width="20" height="20" viewBox="0 0 20 20" stroke="none" id="product">
            <path d="M19.1349 6.66828L18.4918 6.57367L18.4913 6.57703L19.1349 6.66828ZM18.2648 12.8049L17.6212 12.7137L17.621 12.715L18.2648 12.8049ZM3.62783 12.6656L4.27568 12.6127L4.27562 12.612L3.62783 12.6656ZM2.78516 2.46804L3.43295 2.41451L3.39165 1.91472L2.89773 1.82786L2.78516 2.46804ZM1.40207 2.22482L1.2877 2.86468L1.28949 2.86499L1.40207 2.22482ZM0.843335 1.42032L1.484 1.53009L1.4844 1.52774L0.843335 1.42032ZM1.64021 0.841262L1.73898 0.198808L1.73786 0.198638L1.64021 0.841262ZM3.82476 1.17709L3.94191 0.537739L3.93274 0.536059L3.92353 0.534642L3.82476 1.17709ZM4.39265 1.81321L5.04043 1.75941L5.04024 1.75726L4.39265 1.81321ZM4.56668 3.90866L3.91889 3.96246L3.91939 3.96789L4.56668 3.90866ZM14.4819 8.64694H11.9447V9.94694H14.4819V8.64694ZM14.5188 8.59534C14.5188 8.61435 14.5117 8.62845 14.5031 8.63737C14.4989 8.6417 14.4951 8.64396 14.4925 8.64508C14.4905 8.64596 14.4875 8.64694 14.4819 8.64694V9.94694C15.244 9.94694 15.8188 9.31917 15.8188 8.59534H14.5188ZM14.4819 8.54374C14.4903 8.54374 14.4948 8.54527 14.497 8.54622C14.4996 8.54732 14.5024 8.54908 14.5052 8.55196C14.5098 8.55672 14.5188 8.56885 14.5188 8.59534H15.8188C15.8188 7.85645 15.2384 7.24374 14.4819 7.24374V8.54374ZM11.9447 8.54374H14.4819V7.24374H11.9447V8.54374ZM11.9077 8.59534C11.9077 8.56885 11.9167 8.55672 11.9214 8.55196C11.9242 8.54908 11.927 8.54732 11.9296 8.54622C11.9318 8.54527 11.9363 8.54374 11.9447 8.54374V7.24374C11.1881 7.24374 10.6077 7.85645 10.6077 8.59534H11.9077ZM11.9447 8.64694C11.9391 8.64694 11.9361 8.64596 11.934 8.64508C11.9315 8.64396 11.9277 8.6417 11.9235 8.63737C11.9148 8.62845 11.9077 8.61435 11.9077 8.59534H10.6077C10.6077 9.31917 11.1826 9.94694 11.9447 9.94694V8.64694ZM19.2818 4.63884C19.0614 4.38006 18.8118 4.15697 18.5023 4.00329C18.1888 3.84761 17.8549 3.78345 17.4954 3.78345V5.08345C17.6946 5.08345 17.8232 5.11752 17.9242 5.16765C18.0291 5.21977 18.1459 5.31006 18.2919 5.4816L19.2818 4.63884ZM19.778 6.76289C19.8729 6.1176 19.8227 5.27414 19.2818 4.63884L18.2919 5.4816C18.4838 5.70693 18.5618 6.09828 18.4918 6.57367L19.778 6.76289ZM18.9083 12.8962L19.7785 6.75954L18.4913 6.57703L17.6212 12.7137L18.9083 12.8962ZM15.9474 15.5036C17.4429 15.5036 18.6999 14.3876 18.9085 12.8949L17.621 12.715C17.4999 13.5815 16.7784 14.2036 15.9474 14.2036V15.5036ZM5.95435 15.5036H15.9474V14.2036H5.95435V15.5036ZM2.97998 12.7184C3.10721 14.2777 4.38482 15.5036 5.95435 15.5036V14.2036C5.08745 14.2036 4.34996 13.5231 4.27568 12.6127L2.97998 12.7184ZM2.13736 2.52157L2.98004 12.7191L4.27562 12.612L3.43295 2.41451L2.13736 2.52157ZM1.28949 2.86499L2.67258 3.10822L2.89773 1.82786L1.51464 1.58464L1.28949 2.86499ZM0.202673 1.31054C0.0789176 2.03278 0.565757 2.73564 1.28771 2.86468L1.51643 1.58496C1.51592 1.58487 1.50567 1.58265 1.49448 1.5666C1.48352 1.55089 1.48273 1.5375 1.484 1.53009L0.202673 1.31054ZM1.73786 0.198638C1.01368 0.0885994 0.325493 0.577599 0.202274 1.31289L1.4844 1.52774C1.48941 1.49782 1.51567 1.4798 1.54257 1.48389L1.73786 0.198638ZM3.92353 0.534642L1.73898 0.198809L1.54145 1.48371L3.726 1.81955L3.92353 0.534642ZM5.04024 1.75726C4.98865 1.16012 4.5537 0.64984 3.94191 0.537739L3.70761 1.81645C3.71581 1.81795 3.72261 1.8215 3.72922 1.82895C3.73629 1.8369 3.74341 1.85003 3.74506 1.86916L5.04024 1.75726ZM5.21445 3.85486L5.04042 1.75941L3.74488 1.86701L3.91891 3.96246L5.21445 3.85486ZM5.12541 3.78345C5.14916 3.78345 5.17433 3.79379 5.19171 3.81013C5.20852 3.82594 5.21334 3.84243 5.21398 3.84942L3.91939 3.96789C3.97589 4.58529 4.47897 5.08345 5.12541 5.08345V3.78345ZM17.4954 3.78345H5.12541V5.08345H17.4954V3.78345ZM5.06537 17.754C5.06537 17.3142 5.41005 16.9821 5.80762 16.9821V15.6821C4.66638 15.6821 3.76537 16.6222 3.76537 17.754H5.06537ZM5.80762 18.5166C5.40729 18.5166 5.06537 18.1817 5.06537 17.754H3.76537C3.76537 18.8793 4.66915 19.8166 5.80762 19.8166V18.5166ZM6.5407 17.754C6.5407 18.1845 6.19602 18.5166 5.80762 18.5166V19.8166C6.93969 19.8166 7.8407 18.8765 7.8407 17.754H6.5407ZM5.80762 16.9821C6.19326 16.9821 6.5407 17.3114 6.5407 17.754H7.8407C7.8407 16.6251 6.94245 15.6821 5.80762 15.6821V16.9821ZM15.3698 17.754C15.3698 17.3142 15.7145 16.9821 16.1121 16.9821V15.6821C14.9709 15.6821 14.0698 16.6222 14.0698 17.754H15.3698ZM16.1121 18.5166C15.7118 18.5166 15.3698 18.1817 15.3698 17.754H14.0698C14.0698 18.8793 14.9736 19.8166 16.1121 19.8166V18.5166ZM16.8452 17.754C16.8452 18.1845 16.5005 18.5166 16.1121 18.5166V19.8166C17.2442 19.8166 18.1452 18.8765 18.1452 17.754H16.8452ZM16.1121 16.9821C16.4977 16.9821 16.8452 17.3114 16.8452 17.754H18.1452C18.1452 16.6251 17.2469 15.6821 16.1121 15.6821V16.9821Z"/>
        </svg>
    </symbol>
</svg>