<svg>
    <symbol>
        <svg width="22" height="22" viewBox="0 0 22 22" xmlns="http://www.w3.org/2000/svg" id='viewTask'>
            <path fill-rule="evenodd" clip-rule="evenodd" d="M9.396 17.875C9.396 17.4953 9.7038 17.1875 10.0835 17.1875H19.2502C19.6299 17.1875 19.9377 17.4953 19.9377 17.875C19.9377 18.2547 19.6299 18.5625 19.2502 18.5625H10.0835C9.7038 18.5625 9.396 18.2547 9.396 17.875Z"/>
            <path fill-rule="evenodd" clip-rule="evenodd" d="M9.396 11.4583C9.396 11.0786 9.7038 10.7708 10.0835 10.7708H19.2502C19.6299 10.7708 19.9377 11.0786 19.9377 11.4583C19.9377 11.8379 19.6299 12.1458 19.2502 12.1458H10.0835C9.7038 12.1458 9.396 11.8379 9.396 11.4583Z"/>
            <path fill-rule="evenodd" clip-rule="evenodd" d="M9.396 5.0415C9.396 4.66181 9.7038 4.354 10.0835 4.354H19.2502C19.6299 4.354 19.9377 4.66181 19.9377 5.0415C19.9377 5.4212 19.6299 5.729 19.2502 5.729H10.0835C9.7038 5.729 9.396 5.4212 9.396 5.0415Z"/>
            <path fill-rule="evenodd" clip-rule="evenodd" d="M6.9028 2.72212C7.17129 2.9906 7.17129 3.4259 6.9028 3.69439L4.1528 6.44439C3.88432 6.71287 3.44902 6.71287 3.18053 6.44439L2.26386 5.52772C1.99538 5.25924 1.99538 4.82393 2.26386 4.55545C2.53235 4.28696 2.96765 4.28696 3.23614 4.55545L3.66667 4.98598L5.93053 2.72212C6.19902 2.45363 6.63432 2.45363 6.9028 2.72212Z"/>
            <path fill-rule="evenodd" clip-rule="evenodd" d="M6.9028 9.13886C7.17129 9.40735 7.17129 9.84265 6.9028 10.1111L4.1528 12.8611C3.88432 13.1296 3.44902 13.1296 3.18053 12.8611L2.26386 11.9445C1.99538 11.676 1.99538 11.2407 2.26386 10.9722C2.53235 10.7037 2.96765 10.7037 3.23614 10.9722L3.66667 11.4027L5.93053 9.13886C6.19902 8.87038 6.63432 8.87038 6.9028 9.13886Z"/>
            <path fill-rule="evenodd" clip-rule="evenodd" d="M6.9028 15.5554C7.17129 15.8239 7.17129 16.2592 6.9028 16.5276L4.1528 19.2776C3.88432 19.5461 3.44902 19.5461 3.18053 19.2776L2.26386 18.361C1.99538 18.0925 1.99538 17.6572 2.26386 17.3887C2.53235 17.1202 2.96765 17.1202 3.23614 17.3887L3.66667 17.8192L5.93053 15.5554C6.19902 15.2869 6.63432 15.2869 6.9028 15.5554Z"/>
        </svg>
    </symbol>
    <symbol>
        <svg width="20" height="21" viewBox="0 0 20 21" xmlns="http://www.w3.org/2000/svg" id='support'>
            <path d="M9.51327 13C8.12389 13 7 11.8938 7 10.5044C7 9.11504 8.12389 8 9.51327 8C10.9027 8 12 9.11504 12 10.5044C12 11.8938 10.9027 13 9.51327 13"/>
            <path d="M9.51327 13C8.12389 13 7 11.8938 7 10.5044C7 9.11504 8.12389 8 9.51327 8C10.9027 8 12 9.11504 12 10.5044C12 11.8938 10.9027 13 9.51327 13"/>
            <path d="M18.1693 12.3392C17.9913 12.0642 17.7384 11.7892 17.4105 11.615C17.1482 11.4867 16.9796 11.2758 16.8297 11.0283C16.3519 10.24 16.6329 9.20417 17.4292 8.73667C18.366 8.21417 18.6658 7.05 18.1224 6.1425L17.4948 5.06083C16.9608 4.15333 15.7898 3.8325 14.8624 4.36417C14.038 4.80417 12.9794 4.51083 12.5017 3.73167C12.3518 3.475 12.2675 3.2 12.2862 2.925C12.3143 2.5675 12.2019 2.22833 12.0333 1.95333C11.6867 1.385 11.059 1 10.3658 1H9.04491C8.36105 1.01833 7.7334 1.385 7.38678 1.95333C7.20879 2.22833 7.10575 2.5675 7.12448 2.925C7.14322 3.2 7.05891 3.475 6.90902 3.73167C6.43125 4.51083 5.37268 4.80417 4.55767 4.36417C3.62087 3.8325 2.45925 4.15333 1.91591 5.06083L1.28825 6.1425C0.754281 7.05 1.05406 8.21417 1.98148 8.73667C2.77776 9.20417 3.0588 10.24 2.5904 11.0283C2.43114 11.2758 2.26252 11.4867 2.00022 11.615C1.68171 11.7892 1.40067 12.0642 1.25078 12.3392C0.904168 12.9075 0.922904 13.6225 1.26952 14.2183L1.91591 15.3183C2.26252 15.905 2.90891 16.2717 3.5834 16.2717C3.90191 16.2717 4.27663 16.18 4.5764 15.9967C4.8106 15.8408 5.09164 15.7858 5.40078 15.7858C6.32821 15.7858 7.10575 16.5467 7.12448 17.4542C7.12448 18.5083 7.98633 19.3333 9.07301 19.3333H10.3471C11.4244 19.3333 12.2862 18.5083 12.2862 17.4542C12.3143 16.5467 13.0919 15.7858 14.0193 15.7858C14.3191 15.7858 14.6001 15.8408 14.8437 15.9967C15.1434 16.18 15.5088 16.2717 15.8367 16.2717C16.5018 16.2717 17.1482 15.905 17.4948 15.3183L18.1506 14.2183C18.4878 13.6042 18.5159 12.9075 18.1693 12.3392" stroke-width="1.5"/>
        </svg>
    </symbol>
</svg>