<svg width="18" height="18" viewBox="0 0 18 18" fill="none" xmlns="http://www.w3.org/2000/svg">
<g clip-path="url(#clip0_110_1096)">
<path d="M8.99993 10.2857C10.7751 10.2857 12.2142 8.84666 12.2142 7.07146C12.2142 5.29626 10.7751 3.85718 8.99993 3.85718C7.22473 3.85718 5.78564 5.29626 5.78564 7.07146C5.78564 8.84666 7.22473 10.2857 8.99993 10.2857Z" stroke="#5D5F7A" stroke-width="1.2" stroke-linecap="round" stroke-linejoin="round"/>
<path d="M3.51001 15.3C4.08375 14.3583 4.89011 13.5799 5.85156 13.0398C6.81302 12.4997 7.89724 12.2161 9.00001 12.2161C10.1028 12.2161 11.187 12.4997 12.1485 13.0398C13.1099 13.5799 13.9163 14.3583 14.49 15.3" stroke="#5D5F7A" stroke-width="1.2" stroke-linecap="round" stroke-linejoin="round"/>
<path d="M8.99996 17.3571C13.6155 17.3571 17.3571 13.6155 17.3571 8.99996C17.3571 4.38444 13.6155 0.642822 8.99996 0.642822C4.38444 0.642822 0.642822 4.38444 0.642822 8.99996C0.642822 13.6155 4.38444 17.3571 8.99996 17.3571Z" stroke="#5D5F7A" stroke-width="1.2" stroke-linecap="round" stroke-linejoin="round"/>
</g>
<defs>
<clipPath id="clip0_110_1096">
<rect width="18" height="18" fill="white"/>
</clipPath>
</defs>
</svg>
