<svg width="21" height="21" viewBox="0 0 21 21" fill="none" xmlns="http://www.w3.org/2000/svg">
<circle cx="10.5" cy="10.5" r="10.5" fill="#1C92FF"/>
<path fill-rule="evenodd" clip-rule="evenodd" d="M11.8569 5.14502C12.3691 5.14502 12.8239 5.47278 12.9859 5.95871L13.3097 6.93002H14.6658C15.6516 6.93002 16.4508 7.72919 16.4508 8.71502V13.475C16.4508 14.4609 15.6516 15.26 14.6658 15.26H6.33578C5.34996 15.26 4.55078 14.4609 4.55078 13.475V8.71502C4.55078 7.72919 5.34996 6.93002 6.33578 6.93002H7.69193L8.0157 5.95871C8.17768 5.47278 8.63242 5.14502 9.14463 5.14502H11.8569ZM11.8569 6.33502H9.14463L8.82086 7.30633C8.65889 7.79226 8.20414 8.12002 7.69193 8.12002H6.33578C6.00717 8.12002 5.74078 8.38641 5.74078 8.71502V13.475C5.74078 13.8036 6.00717 14.07 6.33578 14.07H14.6658C14.9944 14.07 15.2608 13.8036 15.2608 13.475V8.71502C15.2608 8.38641 14.9944 8.12002 14.6658 8.12002H13.3097C12.7974 8.12002 12.3427 7.79226 12.1807 7.30633L11.8569 6.33502ZM9.01328 10.7975C9.01328 9.976 9.67926 9.31002 10.5008 9.31002C11.3223 9.31002 11.9883 9.976 11.9883 10.7975C11.9883 11.619 11.3223 12.285 10.5008 12.285C9.67926 12.285 9.01328 11.619 9.01328 10.7975ZM10.5008 8.12002C9.02204 8.12002 7.82328 9.31877 7.82328 10.7975C7.82328 12.2763 9.02204 13.475 10.5008 13.475C11.9795 13.475 13.1783 12.2763 13.1783 10.7975C13.1783 9.31877 11.9795 8.12002 10.5008 8.12002Z" fill="white"/>
</svg>
