<svg width="20" height="20" viewBox="0 0 20 20" fill="none" xmlns="http://www.w3.org/2000/svg">
<g opacity="0.7" clip-path="url(#clip0_247_1032)">
<path d="M16.2244 1.77993L17.9922 3.5477C18.4804 4.03586 18.4804 4.82731 17.9922 5.31547L7.53446 15.7732C7.24984 16.0578 6.9007 16.2695 6.51672 16.3903L2.64766 17.6071C2.45009 17.6692 2.23956 17.5594 2.17743 17.3618C2.15359 17.286 2.15445 17.2046 2.17989 17.1293L3.56065 13.0428C3.68379 12.6783 3.88935 12.3472 4.16135 12.0753L14.4567 1.77993C14.9448 1.29178 15.7363 1.29178 16.2244 1.77993ZM6.37266 11.6313L5.04523 12.9591C4.93643 13.0679 4.84889 13.1956 4.7867 13.3357L4.74488 13.4429L3.91586 15.8976L6.14171 15.1979C6.2953 15.1496 6.43774 15.0721 6.56144 14.9703L6.65058 14.8893L8.14016 13.3988L6.37266 11.6313ZM12.7789 5.22507L7.25641 10.7469L9.02391 12.5151L14.5464 6.99257L12.7789 5.22507ZM15.3405 2.66382L13.6627 4.34069L15.4308 6.10882L17.1083 4.43159L15.3405 2.66382Z" fill="#5D5F7A"/>
</g>
<defs>
<clipPath id="clip0_247_1032">
<rect width="20" height="20" fill="white"/>
</clipPath>
</defs>
</svg>
