<svg width="22" height="22" viewBox="0 0 22 22" fill="none" xmlns="http://www.w3.org/2000/svg">
<path d="M20.1349 7.66828L19.4918 7.57367L19.4913 7.57703L20.1349 7.66828ZM19.2648 13.8049L18.6212 13.7137L18.621 13.715L19.2648 13.8049ZM4.62783 13.6656L5.27568 13.6127L5.27562 13.612L4.62783 13.6656ZM3.78516 3.46804L4.43295 3.41451L4.39165 2.91472L3.89773 2.82786L3.78516 3.46804ZM2.40207 3.22482L2.2877 3.86468L2.28949 3.86499L2.40207 3.22482ZM1.84334 2.42032L2.484 2.53009L2.4844 2.52774L1.84334 2.42032ZM2.64021 1.84126L2.73898 1.19881L2.73786 1.19864L2.64021 1.84126ZM4.82476 2.17709L4.94191 1.53774L4.93274 1.53606L4.92353 1.53464L4.82476 2.17709ZM5.39265 2.81321L6.04043 2.75941L6.04024 2.75726L5.39265 2.81321ZM5.56668 4.90866L4.91889 4.96246L4.91939 4.96789L5.56668 4.90866ZM15.4819 9.64694H12.9447V10.9469H15.4819V9.64694ZM15.5188 9.59534C15.5188 9.61435 15.5117 9.62845 15.5031 9.63737C15.4989 9.6417 15.4951 9.64396 15.4925 9.64508C15.4905 9.64596 15.4875 9.64694 15.4819 9.64694V10.9469C16.244 10.9469 16.8188 10.3192 16.8188 9.59534H15.5188ZM15.4819 9.54374C15.4903 9.54374 15.4948 9.54527 15.497 9.54622C15.4996 9.54732 15.5024 9.54908 15.5052 9.55196C15.5098 9.55672 15.5188 9.56885 15.5188 9.59534H16.8188C16.8188 8.85645 16.2384 8.24374 15.4819 8.24374V9.54374ZM12.9447 9.54374H15.4819V8.24374H12.9447V9.54374ZM12.9077 9.59534C12.9077 9.56885 12.9167 9.55672 12.9214 9.55196C12.9242 9.54908 12.927 9.54732 12.9296 9.54622C12.9318 9.54527 12.9363 9.54374 12.9447 9.54374V8.24374C12.1881 8.24374 11.6077 8.85645 11.6077 9.59534H12.9077ZM12.9447 9.64694C12.9391 9.64694 12.9361 9.64596 12.934 9.64508C12.9315 9.64396 12.9277 9.6417 12.9235 9.63737C12.9148 9.62845 12.9077 9.61435 12.9077 9.59534H11.6077C11.6077 10.3192 12.1826 10.9469 12.9447 10.9469V9.64694ZM20.2818 5.63884C20.0614 5.38006 19.8118 5.15697 19.5023 5.00329C19.1888 4.84761 18.8549 4.78345 18.4954 4.78345V6.08345C18.6946 6.08345 18.8232 6.11752 18.9242 6.16765C19.0291 6.21977 19.1459 6.31006 19.2919 6.4816L20.2818 5.63884ZM20.778 7.76289C20.8729 7.1176 20.8227 6.27414 20.2818 5.63884L19.2919 6.4816C19.4838 6.70693 19.5618 7.09828 19.4918 7.57367L20.778 7.76289ZM19.9083 13.8962L20.7785 7.75954L19.4913 7.57703L18.6212 13.7137L19.9083 13.8962ZM16.9474 16.5036C18.4429 16.5036 19.6999 15.3876 19.9085 13.8949L18.621 13.715C18.4999 14.5815 17.7784 15.2036 16.9474 15.2036V16.5036ZM6.95435 16.5036H16.9474V15.2036H6.95435V16.5036ZM3.97998 13.7184C4.10721 15.2777 5.38482 16.5036 6.95435 16.5036V15.2036C6.08745 15.2036 5.34996 14.5231 5.27568 13.6127L3.97998 13.7184ZM3.13736 3.52157L3.98004 13.7191L5.27562 13.612L4.43295 3.41451L3.13736 3.52157ZM2.28949 3.86499L3.67258 4.10822L3.89773 2.82786L2.51464 2.58464L2.28949 3.86499ZM1.20267 2.31054C1.07892 3.03278 1.56576 3.73564 2.28771 3.86468L2.51643 2.58496C2.51592 2.58487 2.50567 2.58265 2.49448 2.5666C2.48352 2.55089 2.48273 2.5375 2.484 2.53009L1.20267 2.31054ZM2.73786 1.19864C2.01368 1.0886 1.32549 1.5776 1.20227 2.31289L2.4844 2.52774C2.48941 2.49782 2.51567 2.4798 2.54257 2.48389L2.73786 1.19864ZM4.92353 1.53464L2.73898 1.19881L2.54145 2.48371L4.726 2.81955L4.92353 1.53464ZM6.04024 2.75726C5.98865 2.16012 5.5537 1.64984 4.94191 1.53774L4.70761 2.81645C4.71581 2.81795 4.72261 2.8215 4.72922 2.82895C4.73629 2.8369 4.74341 2.85003 4.74506 2.86916L6.04024 2.75726ZM6.21445 4.85486L6.04042 2.75941L4.74488 2.86701L4.91891 4.96246L6.21445 4.85486ZM6.12541 4.78345C6.14916 4.78345 6.17433 4.79379 6.19171 4.81013C6.20852 4.82594 6.21334 4.84243 6.21398 4.84942L4.91939 4.96789C4.97589 5.58529 5.47897 6.08345 6.12541 6.08345V4.78345ZM18.4954 4.78345H6.12541V6.08345H18.4954V4.78345ZM6.06537 18.754C6.06537 18.3142 6.41005 17.9821 6.80762 17.9821V16.6821C5.66638 16.6821 4.76537 17.6222 4.76537 18.754H6.06537ZM6.80762 19.5166C6.40729 19.5166 6.06537 19.1817 6.06537 18.754H4.76537C4.76537 19.8793 5.66915 20.8166 6.80762 20.8166V19.5166ZM7.5407 18.754C7.5407 19.1845 7.19602 19.5166 6.80762 19.5166V20.8166C7.93969 20.8166 8.8407 19.8765 8.8407 18.754H7.5407ZM6.80762 17.9821C7.19326 17.9821 7.5407 18.3114 7.5407 18.754H8.8407C8.8407 17.6251 7.94245 16.6821 6.80762 16.6821V17.9821ZM16.3698 18.754C16.3698 18.3142 16.7145 17.9821 17.1121 17.9821V16.6821C15.9709 16.6821 15.0698 17.6222 15.0698 18.754H16.3698ZM17.1121 19.5166C16.7118 19.5166 16.3698 19.1817 16.3698 18.754H15.0698C15.0698 19.8793 15.9736 20.8166 17.1121 20.8166V19.5166ZM17.8452 18.754C17.8452 19.1845 17.5005 19.5166 17.1121 19.5166V20.8166C18.2442 20.8166 19.1452 19.8765 19.1452 18.754H17.8452ZM17.1121 17.9821C17.4977 17.9821 17.8452 18.3114 17.8452 18.754H19.1452C19.1452 17.6251 18.2469 16.6821 17.1121 16.6821V17.9821Z" fill="#787F89"/>
</svg>
