<svg width="30" height="30" viewBox="0 0 30 30" fill="none" xmlns="http://www.w3.org/2000/svg">
<path d="M15 3.75C15.6904 3.75 16.25 4.30965 16.25 5C16.25 5.64104 15.7675 6.16938 15.1458 6.24159L15 6.25H8.75C8.10896 6.25 7.58062 6.73256 7.50841 7.35423L7.5 7.5V22.5C7.5 23.1411 7.98256 23.6694 8.60423 23.7416L8.75 23.75H14.375C15.0654 23.75 15.625 24.3096 15.625 25C15.625 25.6411 15.1425 26.1694 14.5208 26.2416L14.375 26.25H8.75C6.7529 26.25 5.12042 24.6889 5.00637 22.7203L5 22.5V7.5C5 5.50291 6.56115 3.87042 8.52966 3.75637L8.75 3.75H15ZM22.1337 10.5806L25.6694 14.1161C26.1575 14.6043 26.1575 15.3958 25.6694 15.8839L22.1337 19.4194C21.6456 19.9076 20.8542 19.9076 20.366 19.4194C19.8779 18.9312 19.8779 18.1397 20.366 17.6516L21.7677 16.25H15C14.3096 16.25 13.75 15.6904 13.75 15C13.75 14.3096 14.3096 13.75 15 13.75H21.7677L20.366 12.3484C19.8779 11.8602 19.8779 11.0687 20.366 10.5806C20.8542 10.0924 21.6456 10.0924 22.1337 10.5806Z" fill="#FF451C"/>
<path d="M15.7577 28.9154L15.7474 28.9206L15.7455 28.9202L15.7204 28.9239L15.7059 28.9259L15.682 28.9294L15.6603 28.9402L15.6172 28.9618L15.5742 28.9402L15.5638 28.9351L15.5528 28.9315C15.5336 28.9254 15.5129 28.9223 15.4918 28.9229L15.4768 28.9154L15.2459 28.8C15.1687 28.7614 15.0825 28.7849 15.0326 28.8409L15.0155 28.8601L15.0058 28.8838L14.9986 28.9012L14.989 28.9246L14.9876 28.9498L14.9449 29.7181C14.942 29.7706 14.9614 29.8166 14.9929 29.85H0.15V0.15H29.85V29.85H16.2414C16.2467 29.8444 16.2518 29.8383 16.2565 29.8318L16.2719 29.8104L16.2791 29.785L16.2841 29.7674L16.2909 29.7432L16.2895 29.7181L16.2469 28.9498L16.2463 28.9392L16.2442 28.9287C16.2309 28.8623 16.1803 28.7993 16.101 28.7843L16.0763 28.7795L16.0513 28.7832L16.034 28.7857L16.0102 28.7892L15.9886 28.8L15.7577 28.9154ZM15.2445 29.7348L15.2445 29.7345L15.2445 29.7348ZM15.3948 29.7995L15.4656 29.85H15.2854L15.3948 29.7995ZM15.7689 29.85L15.8397 29.7995L15.9491 29.85H15.7689ZM15.1544 6.39134L15.1544 6.39159L15.1631 6.39059C15.8595 6.3097 16.4 5.71807 16.4 5C16.4 4.22681 15.7732 3.6 15 3.6H8.75V3.59994L8.74567 3.60006L8.52533 3.60643L8.52533 3.60637L8.52098 3.60662C6.4736 3.72525 4.85 5.42297 4.85 7.5V22.5H4.84994L4.85006 22.5043L4.85643 22.7247L4.85637 22.7247L4.85662 22.729C4.97525 24.7765 6.67297 26.4 8.75 26.4H14.375V26.4002L14.3836 26.3998L14.5294 26.3913L14.5294 26.3916L14.5381 26.3906C15.2345 26.3097 15.775 25.7181 15.775 25C15.775 24.2268 15.1482 23.6 14.375 23.6H8.75434L8.61733 23.5921C8.07245 23.5267 7.65 23.0626 7.65 22.5V7.50432L7.6579 7.36734C7.72331 6.82245 8.18743 6.4 8.75 6.4H15V6.40025L15.0086 6.39975L15.1544 6.39134ZM7.35941 7.33692L7.35916 7.33689L7.35866 7.34559L7.35025 7.49136L7.35 7.49135V7.5V22.5C7.35 23.2181 7.89049 23.8097 8.58692 23.8906L8.58689 23.8908L8.59559 23.8913L8.74136 23.8998L8.74135 23.9H8.75H14.375C14.9825 23.9 15.475 24.3925 15.475 25C15.475 25.5626 15.0526 26.0267 14.5077 26.0921L14.3707 26.1H8.75C6.83357 26.1 5.2668 24.6025 5.15624 22.7138L5.15 22.4978V7.5C5.15 5.58357 6.64757 4.01679 8.53619 3.90624L8.75216 3.9H15C15.6075 3.9 16.1 4.39249 16.1 5C16.1 5.56257 15.6776 6.02669 15.1327 6.0921L14.9957 6.1H8.75C8.03193 6.1 7.4403 6.64049 7.35941 7.33692ZM22.0277 10.6867L22.1337 10.5806L22.0277 10.6867L25.5633 14.2222C25.9929 14.6517 25.9929 15.3483 25.5633 15.7778L22.0277 19.3133L22.0277 19.3133C21.5981 19.743 20.9017 19.743 20.4721 19.3133C20.0425 18.8838 20.0425 18.1872 20.4721 17.7577L21.8738 16.3561L22.1299 16.1H21.7677H15C14.3925 16.1 13.9 15.6075 13.9 15C13.9 14.3925 14.3925 13.9 15 13.9H21.7677H22.1299L21.8738 13.6439L20.4721 12.2423C20.0425 11.8127 20.0425 11.1162 20.4721 10.6867C20.9018 10.2571 21.5981 10.2571 22.0277 10.6867ZM20.2599 10.4745L20.2599 10.4745C19.7132 11.0213 19.7132 11.9077 20.2599 12.4544L20.366 12.3484L20.2599 12.4544L21.4056 13.6H15C14.2268 13.6 13.6 14.2268 13.6 15C13.6 15.7732 14.2268 16.4 15 16.4H21.4056L20.2599 17.5456L20.366 17.6516L20.2599 17.5456C19.7132 18.0923 19.7132 18.9787 20.2599 19.5254C20.8067 20.0723 21.6931 20.0723 22.2398 19.5254C22.2398 19.5254 22.2398 19.5254 22.2398 19.5254L25.7754 15.9899C26.3221 15.4432 26.3221 14.5568 25.7754 14.0101L22.2398 10.4745C21.6931 9.92777 20.8068 9.92779 20.2599 10.4745Z" stroke="white" stroke-width="0.3"/>
</svg>
