<svg width="20" height="24" viewBox="0 0 20 24" fill="none" xmlns="http://www.w3.org/2000/svg">
<g id="Group 1171275871">
<path id="Notif Icon" d="M8.17551 23.9998C7.04734 23.9943 6.13257 23.0841 6.12141 21.9559H10.2092C10.2113 22.2292 10.1592 22.5001 10.0559 22.753C9.78778 23.3682 9.24017 23.817 8.58428 23.9589H8.57917H8.56384H8.54545H8.53625C8.41752 23.9837 8.29676 23.9973 8.17551 23.9998ZM16.351 20.934H0V18.8901L2.04388 17.8682V12.2475C1.99004 10.8057 2.31565 9.37497 2.98815 8.09844C3.65756 6.91454 4.80178 6.07386 6.13163 5.78886V3.56104H10.2194V5.78886C12.855 6.41633 14.3071 8.70956 14.3071 12.2475V17.8682L16.351 18.8901V20.934Z" fill="#B0C3CC"/>
<circle id="Notif Sign" cx="14.052" cy="5.83227" r="4.43227" fill="#EC5252" stroke="white" stroke-width="1.2"/>
</g>
</svg>
