<svg width="16" height="16" viewBox="0 0 16 16" fill="none" xmlns="http://www.w3.org/2000/svg">
<path d="M2.66666 5.33331H8.66666M11.3333 5.33331H13.3333M7.33332 10.6666H13.3333M2.66666 10.6666H4.66666" stroke="#3E3F53" stroke-width="1.2" stroke-linecap="round" stroke-linejoin="round"/>
<path d="M5.99999 12C6.73637 12 7.33332 11.403 7.33332 10.6666C7.33332 9.93027 6.73637 9.33331 5.99999 9.33331C5.26361 9.33331 4.66666 9.93027 4.66666 10.6666C4.66666 11.403 5.26361 12 5.99999 12Z" stroke="#3E3F53" stroke-width="1.2"/>
<path d="M9.99999 6.66667C10.7364 6.66667 11.3333 6.06971 11.3333 5.33333C11.3333 4.59695 10.7364 4 9.99999 4C9.26361 4 8.66666 4.59695 8.66666 5.33333C8.66666 6.06971 9.26361 6.66667 9.99999 6.66667Z" stroke="#3E3F53" stroke-width="1.2"/>
</svg>
