<svg width="18" height="18" viewBox="0 0 18 18" fill="none" xmlns="http://www.w3.org/2000/svg">
<g clip-path="url(#clip0_421_1717)">
<path fill-rule="evenodd" clip-rule="evenodd" d="M9 2.0625C5.16853 2.0625 2.0625 5.16853 2.0625 9C2.0625 12.8315 5.16853 15.9375 9 15.9375C12.8315 15.9375 15.9375 12.8315 15.9375 9C15.9375 5.16853 12.8315 2.0625 9 2.0625ZM0.9375 9C0.9375 4.5472 4.5472 0.9375 9 0.9375C13.4528 0.9375 17.0625 4.5472 17.0625 9C17.0625 13.4528 13.4528 17.0625 9 17.0625C4.5472 17.0625 0.9375 13.4528 0.9375 9ZM9 5.8125C8.53403 5.8125 8.15625 6.19026 8.15625 6.65625C8.15625 6.96691 7.9044 7.21875 7.59375 7.21875C7.28309 7.21875 7.03125 6.96691 7.03125 6.65625C7.03125 5.56894 7.91272 4.6875 9 4.6875C10.0873 4.6875 10.9688 5.56894 10.9688 6.65625C10.9688 7.37876 10.5792 8.0097 10.0015 8.35155C9.85388 8.43885 9.73208 8.53417 9.65273 8.6277C9.57563 8.71845 9.5625 8.7777 9.5625 8.8125V9.75C9.5625 10.0606 9.31065 10.3125 9 10.3125C8.68935 10.3125 8.4375 10.0606 8.4375 9.75V8.8125C8.4375 8.43307 8.60362 8.1252 8.79495 7.89975C8.98395 7.677 9.21968 7.5069 9.42863 7.38329C9.6783 7.23554 9.84375 6.96491 9.84375 6.65625C9.84375 6.19026 9.46597 5.8125 9 5.8125ZM9 12.75C9.41422 12.75 9.75 12.4142 9.75 12C9.75 11.5858 9.41422 11.25 9 11.25C8.58577 11.25 8.25 11.5858 8.25 12C8.25 12.4142 8.58577 12.75 9 12.75Z" fill="#CBCBCB"/>
</g>
<defs>
<clipPath id="clip0_421_1717">
<rect width="18" height="18" fill="white"/>
</clipPath>
</defs>
</svg>
