<?xml version="1.0" standalone="no"?>
<!DOCTYPE svg PUBLIC "-//W3C//DTD SVG 20010904//EN"
 "http://www.w3.org/TR/2001/REC-SVG-20010904/DTD/svg10.dtd">
<svg version="1.0" xmlns="http://www.w3.org/2000/svg"
 width="270.000000pt" height="270.000000pt" viewBox="0 0 270.000000 270.000000"
 preserveAspectRatio="xMidYMid meet">
<metadata>
Created by potrace 1.14, written by Peter Selinger 2001-2017
</metadata>
<g transform="translate(0.000000,270.000000) scale(0.100000,-0.100000)"
fill="#000000" stroke="none">
<path d="M1782 2470 c-148 -40 -181 -55 -220 -99 -44 -52 -46 -69 -46 -597 l0
-501 -133 -32 c-73 -18 -136 -34 -140 -34 -4 -1 -8 156 -9 348 -1 193 -2 359
-3 370 -2 33 -46 75 -83 82 -38 6 -307 -56 -358 -82 -16 -8 -41 -28 -55 -43
-55 -57 -56 -67 -56 -459 l-1 -363 -41 -10 c-23 -6 -61 -15 -83 -21 -56 -15
-107 -58 -133 -114 -20 -42 -21 -60 -21 -340 0 -337 3 -355 67 -381 33 -14 68
-14 118 0 6 1 28 8 50 14 22 6 51 13 65 16 149 31 194 57 236 136 17 32 19 65
21 375 1 187 2 354 2 371 1 28 5 31 52 42 28 7 54 12 58 12 4 0 6 -107 6 -237
-1 -362 5 -369 283 -299 155 39 185 51 218 88 54 59 57 75 58 343 l1 249 48
14 c27 7 51 11 54 8 3 -3 6 -242 6 -531 0 -590 -2 -577 70 -604 35 -13 47 -11
175 19 75 18 155 39 177 47 50 17 92 57 116 108 17 37 19 74 19 518 0 408 -2
482 -15 507 -27 52 -81 66 -176 46 l-35 -8 0 484 c1 266 -3 499 -7 518 -10 45
-59 80 -108 79 -19 -1 -98 -18 -177 -39z"/>
</g>
</svg>
